<mxfile host="app.diagrams.net" modified="2022-02-15T20:10:34.494Z" agent="5.0 (X11; Linux x86_64) AppleWebKit/537.36 (KHTML, like Gecko) Chrome/96.0.4664.93 Safari/537.36" etag="Gs9_5-vY3SE30Hfd4Pd7" version="16.5.6" type="github">
  <diagram id="sPPAAbnuArlgxuHiYbje" name="Page-1">
    <mxGraphModel dx="723" dy="397" grid="1" gridSize="10" guides="1" tooltips="1" connect="1" arrows="1" fold="1" page="1" pageScale="1" pageWidth="850" pageHeight="1100" math="0" shadow="0">
      <root>
        <mxCell id="0" />
        <mxCell id="1" parent="0" />
        <mxCell id="jGapTNRrdzJ1gNCaAzTM-1" value="Pessoa" style="swimlane;fontStyle=1;align=center;verticalAlign=top;childLayout=stackLayout;horizontal=1;startSize=26;horizontalStack=0;resizeParent=1;resizeParentMax=0;resizeLast=0;collapsible=1;marginBottom=0;" parent="1" vertex="1">
          <mxGeometry x="240" y="20" width="190" height="190" as="geometry" />
        </mxCell>
        <mxCell id="jGapTNRrdzJ1gNCaAzTM-2" value="- nome:         string&#xa;- genero:       string&#xa;- idade:         int&#xa; " style="text;strokeColor=none;fillColor=none;align=left;verticalAlign=top;spacingLeft=4;spacingRight=4;overflow=hidden;rotatable=0;points=[[0,0.5],[1,0.5]];portConstraint=eastwest;" parent="jGapTNRrdzJ1gNCaAzTM-1" vertex="1">
          <mxGeometry y="26" width="190" height="94" as="geometry" />
        </mxCell>
        <mxCell id="jGapTNRrdzJ1gNCaAzTM-3" value="" style="line;strokeWidth=1;fillColor=none;align=left;verticalAlign=middle;spacingTop=-1;spacingLeft=3;spacingRight=3;rotatable=0;labelPosition=right;points=[];portConstraint=eastwest;" parent="jGapTNRrdzJ1gNCaAzTM-1" vertex="1">
          <mxGeometry y="120" width="190" height="8" as="geometry" />
        </mxCell>
        <mxCell id="jGapTNRrdzJ1gNCaAzTM-4" value="+ GetNome():     String&#xa;+ SetNome (n: String)" style="text;strokeColor=none;fillColor=none;align=left;verticalAlign=top;spacingLeft=4;spacingRight=4;overflow=hidden;rotatable=0;points=[[0,0.5],[1,0.5]];portConstraint=eastwest;" parent="jGapTNRrdzJ1gNCaAzTM-1" vertex="1">
          <mxGeometry y="128" width="190" height="62" as="geometry" />
        </mxCell>
      </root>
    </mxGraphModel>
  </diagram>
</mxfile>
